<svg width="40" height="39" viewBox="0 0 40 39" fill="none" xmlns="http://www.w3.org/2000/svg">
<path d="M29.25 0C20.1825 0 12.675 6.24 10.53 14.625H1.21875L0 19.5H9.79875C9.79875 21.2062 10.14 22.815 10.5788 24.375H0.975L0.04875 29.25H12.5287C15.9412 35.0513 22.1325 39 29.2988 39C32.8575 39 36.1725 37.9762 39.0488 36.27V30.3225C36.465 32.6625 33.1012 34.125 29.2988 34.125C24.96 34.125 21.1575 32.2238 18.4762 29.25H29.2988L30.0788 24.375H15.6C15.0638 22.815 14.6737 21.255 14.6737 19.5H30.9562L31.7363 14.625H15.6C17.5988 8.97 22.9613 4.875 29.2988 4.875C32.5163 4.875 35.4412 5.89875 37.83 7.605L38.61 2.4375C35.8312 0.92625 32.7113 0 29.2988 0H29.25Z" fill="#41BAE3"/>
</svg>
