<svg width="107" height="21" viewBox="0 0 107 21" fill="none" xmlns="http://www.w3.org/2000/svg">
<path d="M9.08151 2.63279C9.42859 1.82683 10.5714 1.82683 10.9185 2.63279L12.469 6.23321C12.6137 6.56939 12.9306 6.79961 13.2951 6.83341L17.1984 7.19543C18.0722 7.27647 18.4253 8.36328 17.766 8.94244L14.821 11.5297C14.546 11.7713 14.4249 12.1438 14.5054 12.5008L15.3673 16.325C15.5602 17.181 14.6357 17.8527 13.8812 17.4047L10.5106 15.4033C10.1958 15.2164 9.80412 15.2164 9.4894 15.4033L6.11875 17.4047C5.36422 17.8527 4.43972 17.181 4.63266 16.325L5.49455 12.5008C5.57502 12.1438 5.45399 11.7713 5.179 11.5297L2.23394 8.94244C1.57467 8.36328 1.9278 7.27647 2.80157 7.19543L6.7049 6.83341C7.06936 6.79961 7.38623 6.56939 7.53101 6.23321L9.08151 2.63279Z" fill="#FFC12B"/>
<path d="M31.0815 2.63279C31.4286 1.82683 32.5714 1.82683 32.9185 2.63279L34.469 6.23321C34.6137 6.56939 34.9306 6.79961 35.2951 6.83341L39.1984 7.19543C40.0722 7.27647 40.4253 8.36328 39.766 8.94244L36.821 11.5297C36.546 11.7713 36.4249 12.1438 36.5054 12.5008L37.3673 16.325C37.5602 17.181 36.6357 17.8527 35.8812 17.4047L32.5106 15.4033C32.1958 15.2164 31.8042 15.2164 31.4894 15.4033L28.1188 17.4047C27.3643 17.8527 26.4398 17.181 26.6327 16.325L27.4946 12.5008C27.5751 12.1438 27.454 11.7713 27.179 11.5297L24.234 8.94244C23.5747 8.36328 23.9278 7.27647 24.8016 7.19543L28.7049 6.83341C29.0694 6.79961 29.3863 6.56939 29.531 6.23321L31.0815 2.63279Z" fill="#FFC12B"/>
<path d="M52.5744 2.76246C52.9133 1.934 54.0865 1.934 54.4254 2.76246L55.8402 6.22064C55.9806 6.56388 56.2995 6.80122 56.6686 6.83726L60.3171 7.19345C61.1761 7.27732 61.5325 8.33694 60.8988 8.92292L58.0742 11.5349C57.8149 11.7746 57.7013 12.1332 57.7753 12.4785L58.5895 16.2815C58.7745 17.1452 57.8307 17.807 57.0817 17.3388L54.0299 15.4314C53.7056 15.2287 53.2942 15.2287 52.9699 15.4314L49.9181 17.3388C49.1691 17.807 48.2253 17.1452 48.4103 16.2815L49.2245 12.4785C49.2985 12.1332 49.1849 11.7746 48.9256 11.5349L46.101 8.92292C45.4673 8.33694 45.8237 7.27732 46.6827 7.19345L50.3312 6.83726C50.7003 6.80122 51.0192 6.56388 51.1596 6.22064L52.5744 2.76246Z" fill="#FFC12B"/>
<path d="M74.0815 2.63279C74.4286 1.82683 75.5714 1.82683 75.9185 2.63279L77.469 6.23321C77.6137 6.56939 77.9306 6.79961 78.2951 6.83341L82.1984 7.19543C83.0722 7.27647 83.4253 8.36328 82.766 8.94244L79.821 11.5297C79.546 11.7713 79.4249 12.1438 79.5054 12.5008L80.3673 16.325C80.5602 17.181 79.6357 17.8527 78.8812 17.4047L75.5106 15.4033C75.1958 15.2164 74.8042 15.2164 74.4894 15.4033L71.1188 17.4047C70.3643 17.8527 69.4398 17.181 69.6327 16.325L70.4946 12.5008C70.5751 12.1438 70.454 11.7713 70.179 11.5297L67.234 8.94244C66.5747 8.36328 66.9278 7.27647 67.8016 7.19543L71.7049 6.83341C72.0694 6.79961 72.3863 6.56939 72.531 6.23321L74.0815 2.63279Z" fill="#FFC12B"/>
<path d="M96.0815 2.63279C96.4286 1.82683 97.5714 1.82683 97.9185 2.63279L99.469 6.23321C99.6137 6.56939 99.9306 6.79961 100.295 6.83341L104.198 7.19543C105.072 7.27647 105.425 8.36328 104.766 8.94244L101.821 11.5297C101.546 11.7713 101.425 12.1438 101.505 12.5008L102.367 16.325C102.56 17.181 101.636 17.8527 100.881 17.4047L97.5106 15.4033C97.1958 15.2164 96.8042 15.2164 96.4894 15.4033L93.1188 17.4047C92.3643 17.8527 91.4398 17.181 91.6327 16.325L92.4946 12.5008C92.5751 12.1438 92.454 11.7713 92.179 11.5297L89.234 8.94244C88.5747 8.36328 88.9278 7.27647 89.8016 7.19543L93.7049 6.83341C94.0694 6.79961 94.3863 6.56939 94.531 6.23321L96.0815 2.63279Z" fill="#FFC12B"/>
</svg>
