<svg width="49" height="48" viewBox="0 0 49 48" fill="none" xmlns="http://www.w3.org/2000/svg">
<path d="M21.0378 0L18.0452 7.12219C17.4467 7.30175 16.9081 7.601 16.3694 7.90025L9.24723 4.90773L4.938 9.21696L7.93052 16.3392C7.63127 16.9377 7.39187 17.4165 7.15247 18.015L0.0302734 21.0075V26.9925L7.15247 29.985C7.39187 30.5835 7.63127 31.0623 7.93052 31.6608L4.938 38.783L9.24723 43.0923L16.3694 40.0997C16.9081 40.3391 17.4467 40.6384 18.0452 40.8778L21.0378 48H27.0228L30.0153 40.8778C30.554 40.6384 31.1525 40.399 31.6911 40.0997L38.8133 43.0923L43.1225 38.783L40.13 31.6608C40.3694 31.1222 40.6687 30.5237 40.9081 29.985L48.0303 26.9925V21.0075L40.9081 18.015C40.7285 17.4763 40.4293 16.8778 40.13 16.3392L43.1225 9.21696L38.8133 4.90773L31.6911 7.90025C31.1525 7.66085 30.554 7.3616 30.0153 7.12219L27.0228 0L21.0378 0ZM24.0303 14.9626C28.9979 14.9626 33.0078 18.9726 33.0078 23.9401C33.0078 28.9077 28.9979 32.9177 24.0303 32.9177C19.0627 32.9177 15.0527 28.9077 15.0527 23.9401C15.0527 18.9726 19.0627 14.9626 24.0303 14.9626Z" fill="#41BAE3"/>
</svg>
