<svg width="19" height="19" viewBox="0 0 19 19" fill="none" xmlns="http://www.w3.org/2000/svg">
<path d="M9.28489 5.00781C11.7458 5.00781 13.7771 7.03906 13.7771 9.5C13.7771 12 11.7458 13.9922 9.28489 13.9922C6.78489 13.9922 4.79271 12 4.79271 9.5C4.79271 7.03906 6.78489 5.00781 9.28489 5.00781ZM9.28489 12.4297C10.8865 12.4297 12.1755 11.1406 12.1755 9.5C12.1755 7.89844 10.8865 6.60938 9.28489 6.60938C7.64427 6.60938 6.35521 7.89844 6.35521 9.5C6.35521 11.1406 7.68333 12.4297 9.28489 12.4297ZM14.988 4.85156C14.988 5.4375 14.5193 5.90625 13.9333 5.90625C13.3474 5.90625 12.8786 5.4375 12.8786 4.85156C12.8786 4.26562 13.3474 3.79688 13.9333 3.79688C14.5193 3.79688 14.988 4.26562 14.988 4.85156ZM17.9568 5.90625C18.0349 7.35156 18.0349 11.6875 17.9568 13.1328C17.8786 14.5391 17.5661 15.75 16.5505 16.8047C15.5349 17.8203 14.2849 18.1328 12.8786 18.2109C11.4333 18.2891 7.09739 18.2891 5.65208 18.2109C4.24583 18.1328 3.03489 17.8203 1.98021 16.8047C0.964581 15.75 0.652081 14.5391 0.573956 13.1328C0.495831 11.6875 0.495831 7.35156 0.573956 5.90625C0.652081 4.5 0.964581 3.25 1.98021 2.23438C3.03489 1.21875 4.24583 0.90625 5.65208 0.828125C7.09739 0.75 11.4333 0.75 12.8786 0.828125C14.2849 0.90625 15.5349 1.21875 16.5505 2.23438C17.5661 3.25 17.8786 4.5 17.9568 5.90625ZM16.0818 14.6562C16.5505 13.5234 16.4333 10.7891 16.4333 9.5C16.4333 8.25 16.5505 5.51562 16.0818 4.34375C15.7693 3.60156 15.1833 2.97656 14.4411 2.70312C13.2693 2.23438 10.5349 2.35156 9.28489 2.35156C7.99583 2.35156 5.26146 2.23438 4.12864 2.70312C3.34739 3.01562 2.76146 3.60156 2.44896 4.34375C1.98021 5.51562 2.09739 8.25 2.09739 9.5C2.09739 10.7891 1.98021 13.5234 2.44896 14.6562C2.76146 15.4375 3.34739 16.0234 4.12864 16.3359C5.26146 16.8047 7.99583 16.6875 9.28489 16.6875C10.5349 16.6875 13.2693 16.8047 14.4411 16.3359C15.1833 16.0234 15.8083 15.4375 16.0818 14.6562Z" fill="white"/>
</svg>
