<svg width="37" height="48" viewBox="0 0 37 48" fill="none" xmlns="http://www.w3.org/2000/svg">
<g clip-path="url(#clip0_7_752)">
<path d="M32.8071 47.9999H4.26942C3.66034 48.0044 3.06004 47.8549 2.52425 47.5652C1.98846 47.2755 1.53446 46.855 1.20475 46.3429C0.875045 45.8307 0.680353 45.2435 0.638448 44.6359C0.596542 44.0282 0.708878 43.4198 0.965163 42.8672L10.0355 23.251V3.78889H7.436C7.21202 3.78889 6.99713 3.7003 6.83823 3.54244C6.67934 3.38458 6.58934 3.17026 6.58789 2.94628V0.842602C6.58934 0.61863 6.67934 0.404307 6.83823 0.246448C6.99713 0.0885889 7.21202 -4.72193e-06 7.436 1.8876e-10H29.6903C29.9133 0.00144355 30.1266 0.0906939 30.2843 0.248398C30.442 0.406101 30.5313 0.61958 30.5328 0.842602V2.94628C30.5313 3.16931 30.442 3.38279 30.2843 3.54049C30.1266 3.69819 29.9133 3.78744 29.6903 3.78889H27.0414V23.251L36.1114 42.8672C36.3677 43.4198 36.4803 44.0282 36.4384 44.6359C36.3965 45.2435 36.2015 45.8307 35.8718 46.3429C35.5421 46.855 35.0884 47.2755 34.5526 47.5652C34.0168 47.8549 33.4162 48.0044 32.8071 47.9999Z" fill="#41BAE3"/>
<path d="M23.8101 4.04785H13.2529V24.4461H23.8101V4.04785Z" fill="white"/>
<path d="M13.7588 36.4624L16.8813 39.7666C16.9985 39.8847 17.138 39.9784 17.2916 40.0423C17.4452 40.1063 17.6098 40.1392 17.7762 40.1392C17.9426 40.1392 18.1074 40.1063 18.261 40.0423C18.4146 39.9784 18.5539 39.8847 18.6711 39.7666L25.1366 32.7451" stroke="white" stroke-width="3" stroke-miterlimit="10" stroke-linecap="round"/>
</g>
<defs>
<clipPath id="clip0_7_752">
<rect width="36" height="48" fill="white" transform="translate(0.629883)"/>
</clipPath>
</defs>
</svg>
