<svg width="21" height="21" viewBox="0 0 21 21" fill="none" xmlns="http://www.w3.org/2000/svg">
<path d="M20.0725 10.5C20.0725 15.8516 15.7366 20.1875 10.385 20.1875C9.36942 20.1875 8.39286 20.0703 7.49442 19.7578C7.88505 19.1328 8.47099 18.0781 8.70536 17.2188C8.82255 16.7891 9.2913 14.9141 9.2913 14.9141C9.6038 15.5391 10.5413 16.0469 11.5179 16.0469C14.4475 16.0469 16.5569 13.3516 16.5569 10.0312C16.5569 6.82812 13.9397 4.40625 10.5804 4.40625C6.40067 4.40625 4.17411 7.21875 4.17411 10.2656C4.17411 11.7109 4.9163 13.4688 6.12724 14.0547C6.32255 14.1328 6.43974 14.0938 6.4788 13.8984C6.4788 13.7812 6.67411 13.1172 6.75224 12.8047C6.75224 12.7266 6.75224 12.6094 6.67411 12.5312C6.28349 12.0625 5.97099 11.1641 5.97099 10.3047C5.97099 8.19531 7.57255 6.125 10.346 6.125C12.6897 6.125 14.3694 7.72656 14.3694 10.0703C14.3694 12.6875 13.0413 14.4844 11.3225 14.4844C10.385 14.4844 9.68192 13.7031 9.87724 12.7656C10.1507 11.5938 10.6975 10.3438 10.6975 9.52344C10.6975 8.78125 10.3069 8.15625 9.48661 8.15625C8.51005 8.15625 7.7288 9.17188 7.7288 10.5C7.7288 11.3594 8.00224 11.9453 8.00224 11.9453C8.00224 11.9453 7.06474 16.0078 6.86942 16.75C6.67411 17.6094 6.75224 18.7812 6.83036 19.5234C3.23661 18.1172 0.697549 14.6406 0.697549 10.5C0.697549 5.14844 5.03349 0.8125 10.385 0.8125C15.7366 0.8125 20.0725 5.14844 20.0725 10.5Z" fill="white"/>
</svg>
