<svg width="21" height="17" viewBox="0 0 21 17" fill="none" xmlns="http://www.w3.org/2000/svg">
<path d="M18.1247 4.4375C18.1247 4.63281 18.1247 4.78906 18.1247 4.98438C18.1247 10.4141 14.0232 16.625 6.48411 16.625C4.14036 16.625 1.99192 15.9609 0.195049 14.7891C0.507549 14.8281 0.820049 14.8672 1.17161 14.8672C3.08567 14.8672 4.84349 14.2031 6.24974 13.1094C4.45286 13.0703 2.92942 11.8984 2.42161 10.2578C2.69505 10.2969 2.92942 10.3359 3.20286 10.3359C3.55442 10.3359 3.94505 10.2578 4.25755 10.1797C2.38255 9.78906 0.976299 8.14844 0.976299 6.15625V6.11719C1.52317 6.42969 2.18724 6.58594 2.8513 6.625C1.71849 5.88281 1.01536 4.63281 1.01536 3.22656C1.01536 2.44531 1.21067 1.74219 1.56224 1.15625C3.59349 3.61719 6.64036 5.25781 10.0388 5.45312C9.96067 5.14062 9.92161 4.82812 9.92161 4.51562C9.92161 2.25 11.7575 0.414062 14.0232 0.414062C15.195 0.414062 16.2497 0.882812 17.031 1.70312C17.9294 1.50781 18.8279 1.15625 19.6091 0.6875C19.2966 1.66406 18.6716 2.44531 17.8122 2.95312C18.6325 2.875 19.4529 2.64062 20.156 2.32812C19.6091 3.14844 18.906 3.85156 18.1247 4.4375Z" fill="white"/>
</svg>
